<svg id="Layer_1" data-name="Layer 1" xmlns="http://www.w3.org/2000/svg" viewBox="0 0 401.08 547"><defs><style>.cls-1{fill:#eadf0f;}.cls-2{fill:#40add3;}.cls-3{fill:#fff;}</style></defs><path class="cls-1" d="M823,110H946a18.38,18.38,0,0,1,10,10v81a12,12,0,0,1-2,8,12.37,12.37,0,0,1-9,5H779l-26,17-49,1-26-18-57-1a14.52,14.52,0,0,0-7,4,14.75,14.75,0,0,0-4,9V569a12.23,12.23,0,0,0,10,12h58l26,19h47l27-18H883a12,12,0,0,1,11,11v53a10.38,10.38,0,0,1-2,7,10.51,10.51,0,0,1-7,4H565c-3.14-.46-6.12-1.58-8-4a11,11,0,0,1-2-7c.11-7,.07-220.19,0-524a10.71,10.71,0,0,1,3-8,10.54,10.54,0,0,1,7-3h34l27,18h48l26-18Z" transform="translate(-554.98 -110)"/><path class="cls-2" d="M837,228l63-1a14.63,14.63,0,0,1,10,14v78a12,12,0,0,1-11,11l-120,1-25,17H702l-24-18H633a12,12,0,0,1-11-12V238a15.89,15.89,0,0,1,10-11h46l25,18h49l25-17Z" transform="translate(-554.98 -110)"/><path class="cls-2" d="M854,345q39.94-.25,79-1a16.62,16.62,0,0,1,10,11q-.5,42-1,84a12.84,12.84,0,0,1-12,9H778l-25,17H702l-25-18H633a10.84,10.84,0,0,1-8-3,11,11,0,0,1-3-9V355a10.71,10.71,0,0,1,3-7,10.57,10.57,0,0,1,6-3h47l25,17h49l26-17Q815.59,345.24,854,345Z" transform="translate(-554.98 -110)"/><path class="cls-2" d="M836,463c25.54-.91,44.53-.8,51,0a11.63,11.63,0,0,1,7,3,10.47,10.47,0,0,1,3,7v81a12.33,12.33,0,0,1-10,11H778l-25,18-50,1-27-19H631a13.77,13.77,0,0,1-6-4,15.65,15.65,0,0,1-3-7c-1-6-1.06-37.3,0-80a10.32,10.32,0,0,1,11-11h44l27,19h47l27-19Z" transform="translate(-554.98 -110)"/><path class="cls-3" d="M605.54,155.76l4.54-.34H624v7.05H605.54Zm4-1.92c0-6.4,3-11.66,11.17-11.66a17.58,17.58,0,0,1,6,1.08l-1.62,6.63a8.76,8.76,0,0,0-3.15-.66c-2.19,0-3.46,1.21-3.46,4.35v32.18h-9Z" transform="translate(-554.98 -110)"/><path class="cls-3" d="M626.5,170.6c0-10.09,7.1-15.92,14.78-15.92s14.78,5.83,14.78,15.92-7.11,15.89-14.78,15.89S626.5,180.66,626.5,170.6Zm20.34,0c0-5.25-1.85-8.66-5.56-8.66s-5.57,3.41-5.57,8.66,1.85,8.64,5.57,8.64S646.84,175.85,646.84,170.6Z" transform="translate(-554.98 -110)"/><path class="cls-3" d="M662.2,155.42h7.33l.65,5.3h.22c2.21-4.05,5.53-6,8.62-6a8.56,8.56,0,0,1,3.62.61l-1.5,7.76a12.61,12.61,0,0,0-3.27-.49c-2.29,0-5.07,1.48-6.68,5.62v17.58h-9Z" transform="translate(-554.98 -110)"/><path class="cls-3" d="M684.16,170.6c0-9.84,7-15.92,14.31-15.92,8.64,0,12.93,6.29,12.93,14.57a20.45,20.45,0,0,1-.38,4H692.87c.81,4.4,3.82,6.42,7.87,6.42a12.73,12.73,0,0,0,6.56-2l3,5.41a19.66,19.66,0,0,1-10.76,3.42C690.86,186.49,684.16,180.64,684.16,170.6Zm19.56-3.33c0-3.33-1.46-5.73-5.05-5.73-2.84,0-5.29,1.9-5.9,5.73Z" transform="translate(-554.98 -110)"/><path class="cls-3" d="M714,155.42h9l4,14.32c.78,3,1.58,6.15,2.35,9.32h.25c.78-3.17,1.57-6.31,2.35-9.32l3.95-14.32h8.61l-9.9,30.34H724.23Z" transform="translate(-554.98 -110)"/><path class="cls-3" d="M747,170.6c0-9.84,7-15.92,14.31-15.92,8.65,0,12.93,6.29,12.93,14.57a19.68,19.68,0,0,1-.38,4H755.67c.81,4.4,3.82,6.42,7.87,6.42a12.73,12.73,0,0,0,6.56-2l3,5.41a19.66,19.66,0,0,1-10.76,3.42C753.66,186.49,747,180.64,747,170.6Zm19.56-3.33c0-3.33-1.46-5.73-5-5.73-2.84,0-5.29,1.9-5.9,5.73Z" transform="translate(-554.98 -110)"/><path class="cls-3" d="M780.4,155.42h7.33l.65,5.3h.22c2.21-4.05,5.53-6,8.62-6a8.53,8.53,0,0,1,3.62.61l-1.49,7.76a12.62,12.62,0,0,0-3.28-.49c-2.29,0-5.06,1.48-6.68,5.62v17.58h-9Z" transform="translate(-554.98 -110)"/><path class="cls-3" d="M649.46,284.6c0-9.92,6.19-15.92,12.58-15.92a10,10,0,0,1,7.44,3.17l-.32-4.6V256.91h9v42.85h-7.34l-.65-3h-.22a12,12,0,0,1-8.07,3.74C654.33,300.49,649.46,294.51,649.46,284.6Zm19.7,5.82V278a7.39,7.39,0,0,0-5-1.92c-2.92,0-5.47,2.69-5.47,8.46,0,5.95,2.06,8.64,5.54,8.64A5.8,5.8,0,0,0,669.16,290.42Z" transform="translate(-554.98 -110)"/><path class="cls-3" d="M685.36,260.28c0-2.76,2.19-4.7,5.2-4.7s5.21,1.94,5.21,4.7-2.19,4.7-5.21,4.7S685.36,263,685.36,260.28Zm.7,9.14h9v30.34h-9Z" transform="translate(-554.98 -110)"/><path class="cls-3" d="M700.25,296.25l4-5.6c2.74,2.08,5.28,3.19,7.82,3.19s3.84-1,3.84-2.61c0-2-3-2.9-6.13-4.13-3.72-1.44-8-3.9-8-8.92,0-5.65,4.59-9.5,11.59-9.5a17.21,17.21,0,0,1,10.69,3.85l-4,5.39c-2.16-1.56-4.29-2.59-6.39-2.59-2.32,0-3.46.91-3.46,2.43,0,1.93,2.84,2.67,6,3.82,3.84,1.42,8.17,3.58,8.17,9.13s-4.33,9.78-12.46,9.78A19.64,19.64,0,0,1,700.25,296.25Z" transform="translate(-554.98 -110)"/><path class="cls-3" d="M728.26,284.6c0-10.09,7.43-15.92,15.81-15.92a13.16,13.16,0,0,1,8.86,3.27l-4.24,5.78a6.16,6.16,0,0,0-4.12-1.79c-4.32,0-7.1,3.41-7.1,8.66s2.9,8.64,6.8,8.64a9.1,9.1,0,0,0,5.47-2.24l3.52,5.88a15.12,15.12,0,0,1-10,3.61C734.79,300.49,728.26,294.66,728.26,284.6Z" transform="translate(-554.98 -110)"/><path class="cls-3" d="M755.11,284.6c0-10.09,7.1-15.92,14.77-15.92s14.78,5.83,14.78,15.92-7.1,15.89-14.78,15.89S755.11,294.66,755.11,284.6Zm20.34,0c0-5.25-1.85-8.66-5.57-8.66s-5.56,3.41-5.56,8.66,1.85,8.64,5.56,8.64S775.45,289.85,775.45,284.6Z" transform="translate(-554.98 -110)"/><path class="cls-3" d="M787.09,269.42h9l4,14.32c.77,3,1.57,6.15,2.35,9.32h.24c.78-3.17,1.58-6.31,2.36-9.32L809,269.42h8.61l-9.9,30.34H797.32Z" transform="translate(-554.98 -110)"/><path class="cls-3" d="M820.05,284.6c0-9.84,7-15.92,14.31-15.92,8.64,0,12.92,6.29,12.92,14.57a20.62,20.62,0,0,1-.37,4H828.76c.8,4.4,3.82,6.42,7.86,6.42a12.76,12.76,0,0,0,6.57-2l3,5.41a19.7,19.7,0,0,1-10.77,3.42C826.75,300.49,820.05,294.64,820.05,284.6Zm19.55-3.33c0-3.33-1.45-5.73-5-5.73-2.84,0-5.29,1.9-5.9,5.73Z" transform="translate(-554.98 -110)"/><path class="cls-3" d="M853.48,269.42h7.34l.65,5.3h.22c2.21-4.05,5.52-6,8.62-6a8.59,8.59,0,0,1,3.62.61l-1.5,7.76a12.61,12.61,0,0,0-3.27-.49c-2.29,0-5.07,1.48-6.69,5.62v17.58h-9Z" transform="translate(-554.98 -110)"/><path class="cls-3" d="M659,417.52h-.22l-.75,3.24h-7V377.91h9v10.47l-.22,4.66a12.3,12.3,0,0,1,8-3.36c7.35,0,11.9,6.08,11.9,15.38,0,10.46-6.2,16.43-12.77,16.43C664.23,421.49,661.43,420.12,659,417.52Zm11.47-12.31c0-5.45-1.68-8.17-5.27-8.17-1.85,0-3.46.83-5.21,2.72v12.46a7.21,7.21,0,0,0,4.84,1.92C668,414.14,670.49,411.49,670.49,405.21Z" transform="translate(-554.98 -110)"/><path class="cls-3" d="M685.77,409.25V390.42h9V408.1c0,4.37,1.17,5.73,3.77,5.73,2.26,0,3.64-.95,5.39-3.33V390.42h9v30.34h-7.33l-.65-4.21h-.22c-2.54,3-5.39,4.94-9.53,4.94C688.58,421.49,685.77,416.84,685.77,409.25Z" transform="translate(-554.98 -110)"/><path class="cls-3" d="M720.09,381.28c0-2.76,2.19-4.7,5.21-4.7s5.2,1.94,5.2,4.7-2.19,4.7-5.2,4.7S720.09,384,720.09,381.28Zm.7,9.14h9v30.34h-9Z" transform="translate(-554.98 -110)"/><path class="cls-3" d="M737.67,411.33V377.91h9V411.7c0,1.93.89,2.54,1.62,2.54a4,4,0,0,0,1.1-.12l1.08,6.62a11.56,11.56,0,0,1-4.52.75C739.78,421.49,737.67,417.47,737.67,411.33Z" transform="translate(-554.98 -110)"/><path class="cls-3" d="M753.59,405.6c0-9.92,6.2-15.92,12.59-15.92a10,10,0,0,1,7.44,3.17l-.33-4.6V377.91h9v42.85H775l-.65-3h-.22a12,12,0,0,1-8.07,3.74C758.47,421.49,753.59,415.51,753.59,405.6Zm19.7,5.82V399a7.37,7.37,0,0,0-5-1.92c-2.91,0-5.46,2.69-5.46,8.46,0,5.95,2.06,8.64,5.54,8.64A5.78,5.78,0,0,0,773.29,411.42Z" transform="translate(-554.98 -110)"/><path class="cls-3" d="M648.54,504.76l4.54-.34H667v7.05H648.54Zm4-1.92c0-6.4,3-11.66,11.17-11.66a17.58,17.58,0,0,1,6,1.08l-1.62,6.63a8.76,8.76,0,0,0-3.15-.66c-2.19,0-3.46,1.21-3.46,4.35v32.18h-9Z" transform="translate(-554.98 -110)"/><path class="cls-3" d="M671.58,523.25V504.42h9V522.1c0,4.37,1.18,5.73,3.77,5.73,2.26,0,3.64-1,5.4-3.33V504.42h9v30.34h-7.34l-.65-4.21h-.22c-2.53,3-5.39,4.94-9.53,4.94C674.4,535.49,671.58,530.84,671.58,523.25Z" transform="translate(-554.98 -110)"/><path class="cls-3" d="M706.6,504.42h7.34l.64,3.84h.23c2.55-2.45,5.61-4.58,9.75-4.58,6.6,0,9.41,4.66,9.41,12.24v18.84h-9V517.07c0-4.36-1.17-5.73-3.77-5.73-2.26,0-3.64,1.05-5.62,2.95v20.47h-9Z" transform="translate(-554.98 -110)"/></svg>